<svg width="91" height="14" viewBox="0 0 91 14" fill="none" xmlns="http://www.w3.org/2000/svg">
<g filter="url(#filter0_d)">
<path fill-rule="evenodd" clip-rule="evenodd" d="M45.1484 3L48.2341 6.1307L49.8734 4.51018L50.836 5.46557L50.4659 5.83149H88L85.3438 7.18128H49.1005L48.7061 7.57114L45.1487 11L41.7151 7.56322L41.3396 7.18128H5.65625C4.62547 7.04059 4.00085 6.20967 3 5.83149H40.0126L39.6461 5.45871L40.6224 4.51704L42.1926 6.11424L45.1484 3ZM43.1479 7.07842L45.1668 9.09917L47.2635 7.07818L45.167 4.95107L43.1479 7.07842Z" fill="#F19191"/>
<path d="M45.2553 2.8947L45.1464 2.78425L45.0396 2.89674L42.1907 5.89834L40.7294 4.41188L40.6252 4.30593L40.5183 4.40907L39.542 5.35075L39.433 5.45588L39.5391 5.56387L39.6548 5.68149H3L2.94698 5.97181C3.35241 6.12501 3.69205 6.3547 4.04013 6.5901C4.10427 6.63347 4.16869 6.67704 4.23387 6.72037C4.6467 6.99476 5.08467 7.25465 5.63596 7.3299L5.64606 7.33128H5.65625H41.2767L41.6081 7.66838L41.6089 7.66923L45.0425 11.106L45.1467 11.2102L45.2528 11.108L48.8102 7.67915L48.8116 7.67781L49.1621 7.33128H85.3438H85.3797L85.4117 7.31501L88.068 5.96522L88 5.68149H50.831L50.9415 5.57224L51.0492 5.46577L50.9417 5.3591L49.979 4.40372L49.8736 4.29906L49.7679 4.40351L48.2355 5.91842L45.2553 2.8947ZM47.0502 7.07545L45.1688 8.88892L43.3572 7.07573L45.169 5.16682L47.0502 7.07545Z" stroke="black" stroke-width="0.3"/>
</g>
<defs>
<filter id="filter0_d" x="0.894043" y="0.568481" width="89.242" height="12.852" filterUnits="userSpaceOnUse" color-interpolation-filters="sRGB">
<feFlood flood-opacity="0" result="BackgroundImageFix"/>
<feColorMatrix in="SourceAlpha" type="matrix" values="0 0 0 0 0 0 0 0 0 0 0 0 0 0 0 0 0 0 127 0"/>
<feOffset/>
<feGaussianBlur stdDeviation="1"/>
<feColorMatrix type="matrix" values="0 0 0 0 0 0 0 0 0 0 0 0 0 0 0 0 0 0 0.33 0"/>
<feBlend mode="normal" in2="BackgroundImageFix" result="effect1_dropShadow"/>
<feBlend mode="normal" in="SourceGraphic" in2="effect1_dropShadow" result="shape"/>
</filter>
</defs>
</svg>
