<svg width="17" height="134" viewBox="0 0 17 134" fill="none" xmlns="http://www.w3.org/2000/svg">
<g filter="url(#filter0_d)">
<path fill-rule="evenodd" clip-rule="evenodd" d="M14 67.5295L9.69529 62.8829L11.9235 60.4143L10.6098 58.9647L10.1067 59.5221L10.1067 3.00012L8.25074 7.00012L8.25074 61.5782L7.71469 62.1721L3 67.5292L7.72558 72.6998L8.25074 73.2652L8.25074 127C8.44419 128.552 9.5867 129.493 10.1067 131L10.1067 75.2635L10.6193 75.8154L11.9141 74.3452L9.71792 71.9806L14 67.5295ZM8.39218 70.5421L5.61365 67.5019L8.3925 64.3444L11.3173 67.5016L8.39218 70.5421Z" fill="#F19191"/>
<path d="M14.11 67.4276L14.2063 67.5315L14.1081 67.6335L9.92432 71.9824L12.024 74.2431L12.1163 74.3425L12.0266 74.4443L10.7318 75.9145L10.6222 76.039L10.5094 75.9175L10.2567 75.6454L10.2567 131L9.9649 131.049C9.75086 130.429 9.42951 129.908 9.10583 129.384C9.04643 129.288 8.98695 129.192 8.92803 129.095C8.55127 128.474 8.20276 127.828 8.10189 127.019L8.10074 127.009V127L8.10074 73.3241L7.61566 72.8019L7.61485 72.801L2.88928 67.6304L2.79852 67.5311L2.8874 67.4301L7.60207 62.073L7.60334 62.0716L8.10074 61.5206L8.10074 7.00012V6.96702L8.11467 6.93699L9.97063 2.93698L10.2567 3.00012L10.2567 59.1321L10.4985 58.8642L10.6096 58.7411L10.721 58.864L12.0346 60.3136L12.1257 60.4141L12.0348 60.5148L9.89854 62.8815L14.11 67.4276ZM8.39535 64.5682L5.81513 67.5L8.39498 70.3229L11.111 67.4996L8.39535 64.5682Z" stroke="black" stroke-width="0.3"/>
</g>
<defs>
<filter id="filter0_d" x="0.596924" y="0.87384" width="15.8155" height="132.224" filterUnits="userSpaceOnUse" color-interpolation-filters="sRGB">
<feFlood flood-opacity="0" result="BackgroundImageFix"/>
<feColorMatrix in="SourceAlpha" type="matrix" values="0 0 0 0 0 0 0 0 0 0 0 0 0 0 0 0 0 0 127 0"/>
<feOffset/>
<feGaussianBlur stdDeviation="1"/>
<feColorMatrix type="matrix" values="0 0 0 0 0 0 0 0 0 0 0 0 0 0 0 0 0 0 0.33 0"/>
<feBlend mode="normal" in2="BackgroundImageFix" result="effect1_dropShadow"/>
<feBlend mode="normal" in="SourceGraphic" in2="effect1_dropShadow" result="shape"/>
</filter>
</defs>
</svg>
